Coordinates
version=1
nRows=16
nColumns=40
inDegrees=yes

Units are S.I. units (second, meters, Newtons, ...)
If the header above contains a line with 'inDegrees', this indicates whether rotational values are in degrees (yes) or radians (no).

endheader
time	pelvis_tilt	pelvis_list	pelvis_rotation	pelvis_tx	pelvis_ty	pelvis_tz	hip_flexion_r	hip_adduction_r	hip_rotation_r	knee_angle_r	knee_angle_r_beta	ankle_angle_r	subtalar_angle_r	mtp_angle_r	hip_flexion_l	hip_adduction_l	hip_rotation_l	knee_angle_l	knee_angle_l_beta	ankle_angle_l	subtalar_angle_l	mtp_angle_l	lumbar_extension	lumbar_bending	lumbar_rotation	arm_flex_r	arm_add_r	arm_rot_r	elbow_flex_r	pro_sup_r	wrist_flex_r	wrist_dev_r	arm_flex_l	arm_add_l	arm_rot_l	elbow_flex_l	pro_sup_l	wrist_flex_l	wrist_dev_l
      8.15000000	     -7.13769018	     17.18604800	     -0.99177798	     -0.25032184	      1.05298030	      0.26356179	     63.83886751	    -18.87262335	     21.83530758	    103.11436687	      1.79968521	     14.27421411	    -17.79330419	      0.00000000	     63.16819530	      2.90792398	    -16.70060819	     65.95121847	      1.15106591	     14.93232541	    -13.34688842	      0.00000000	    -45.53432298	    -13.23839285	    -13.91996988	     89.83528402	     -2.23923352	     76.66305176	      9.41496678	     83.01151978	      0.00000000	      0.00000000	     89.63664017	     -7.49452795	     50.05662952	     21.95171246	     88.49876352	      0.00000000	      0.00000000
      8.15833333	     -6.90084014	     18.68536848	     -1.83409272	     -0.24932131	      1.05323974	      0.26374795	     65.85556146	    -19.00420283	     24.60307679	    105.60384839	      1.84313486	     16.49648205	    -15.77065249	      0.00000000	     60.73075322	      3.66513812	    -18.65823645	     62.68911772	      1.09413151	     13.79241458	    -13.07440027	      0.00000000	    -45.80207806	    -14.91064875	    -14.49646396	     89.82878666	     -2.06742430	     77.21953315	      9.11876593	     83.09567830	      0.00000000	      0.00000000	     89.64666859	     -7.56160232	     50.31089690	     21.82858010	     88.49569455	      0.00000000	      0.00000000
      8.16666667	     -7.00738938	     18.01512061	     -2.02552170	     -0.24905424	      1.05306864	      0.26434395	     66.96812173	    -17.85048991	     24.70921396	    107.78217160	      1.88115377	     17.45564502	    -15.72063073	      0.00000000	     59.01763092	      3.52027075	    -18.21157418	     60.16559472	      1.05008772	     12.94354269	    -12.80970181	      0.00000000	    -45.53560444	    -14.48972385	    -13.86169771	     89.83093428	     -2.03432071	     77.29679090	      9.16497380	     83.09794577	      0.00000000	      0.00000000	     89.61636442	     -7.57380344	     50.31659922	     21.69913690	     88.50096021	      0.00000000	      0.00000000
      8.17500000	     -6.94004739	     19.03460690	     -2.74174841	     -0.24832633	      1.05301081	      0.26464283	     68.96281233	    -17.58980268	     26.85880301	    110.02901158	      1.92036852	     19.29121278	    -13.75174181	      0.00000000	     56.97841578	      4.14325675	    -19.63425343	     57.24634812	      0.99913726	     11.80066355	    -12.53966616	      0.00000000	    -45.55466163	    -15.73227764	    -14.11025089	     89.82685154	     -1.86408243	     78.15507080	      8.78768323	     82.95133868	      0.00000000	      0.00000000	     89.61806733	     -7.59337165	     50.64553533	     21.48927560	     88.48849479	      0.00000000	      0.00000000
      8.18333333	     -7.18258301	     18.43918406	     -3.00306175	     -0.24819396	      1.05271126	      0.26528558	     70.31192307	    -16.45425563	     26.94396305	    111.97764990	      1.95437868	     20.48148121	    -13.79008578	      0.00000000	     55.46469174	      3.88520375	    -19.46267485	     54.94838662	      0.95903027	     10.54907713	    -12.27265171	      0.00000000	    -45.15094265	    -15.44406187	    -13.40573111	     89.82594826	     -1.86465819	     78.25125554	      8.86578385	     82.93605991	      0.00000000	      0.00000000	     89.58383469	     -7.56433127	     50.71263267	     21.38378316	     88.49565423	      0.00000000	      0.00000000
      8.19166667	     -7.34102279	     19.08891409	     -3.60746307	     -0.24784969	      1.05207648	      0.26575021	     72.37268167	    -15.70609178	     28.64487175	    113.99890220	      1.98965619	     21.83927055	    -12.74350230	      0.00000000	     53.91452799	      4.28447082	    -20.51181093	     52.57825527	      0.91766367	      9.14969351	    -12.21941072	      0.00000000	    -44.87228005	    -16.37300901	    -13.39423589	     89.81871722	     -1.77567868	     78.85379664	      8.65872707	     82.96265152	      0.00000000	      0.00000000	     89.57155725	     -7.63991330	     51.18162975	     21.21412742	     88.47202529	      0.00000000	      0.00000000
      8.20000000	     -7.42622933	     18.54765912	     -3.69021243	     -0.24764333	      1.05193297	      0.26624184	     73.61950931	    -14.80083685	     28.61940723	    115.78457038	      2.02082198	     22.85311936	    -12.79957020	      0.00000000	     52.44539426	      4.24852352	    -20.12923716	     50.67864670	      0.88450925	      8.05546080	    -11.91793949	      0.00000000	    -44.67785183	    -15.98255760	    -12.90946259	     89.81756773	     -1.79748568	     78.94818321	      8.72551584	     82.94724967	      0.00000000	      0.00000000	     89.53866780	     -7.65045141	     51.20330276	     21.17171743	     88.47904623	      0.00000000	      0.00000000
      8.20833333	     -7.25892134	     19.30489212	     -4.13446805	     -0.24705512	      1.05207824	      0.26644499	     75.28723067	    -14.40272664	     30.24170254	    117.49689349	      2.05070765	     24.33346934	    -11.54887421	      0.00000000	     50.66727026	      5.02863373	    -20.95440986	     48.45950970	      0.84577800	      6.32733538	    -11.82117052	      0.00000000	    -44.81383904	    -16.82231443	    -13.19822256	     89.81495848	     -1.68724852	     79.46801943	      8.54527532	     82.85535057	      0.00000000	      0.00000000	     89.53853068	     -7.74362880	     51.51971788	     21.12622528	     88.46790139	      0.00000000	      0.00000000
      8.21666667	     -7.32613950	     18.90378367	     -4.19043733	     -0.24693116	      1.05192300	      0.26689320	     76.55714609	    -13.59131930	     30.27913463	    118.99709396	      2.07689109	     25.41614305	    -11.51534937	      0.00000000	     49.29180686	      5.06989837	    -20.63827139	     46.81741846	      0.81711810	      5.08831169	    -11.52407543	      0.00000000	    -44.65273827	    -16.53263353	    -12.86077553	     89.81558376	     -1.67215786	     79.57259331	      8.52317785	     82.84242554	      0.00000000	      0.00000000	     89.51191301	     -7.80112732	     51.55719835	     21.09131493	     88.48494890	      0.00000000	      0.00000000
      8.22500000	     -6.70277636	     19.47946678	     -4.40032685	     -0.24582619	      1.05275105	      0.26677537	     77.71059325	    -13.57769627	     31.52260404	    120.47266566	      2.10264467	     26.63966616	    -10.31866704	      0.00000000	     47.12039106	      6.09648822	    -21.07410354	     44.86965111	      0.78312315	      3.66301077	    -11.65581244	      0.00000000	    -45.28884040	    -16.96825070	    -13.34613558	     89.81515787	     -1.51691265	     79.91091363	      8.35556101	     82.70078493	      0.00000000	      0.00000000	     89.51172471	     -7.90017597	     51.82773085	     21.09527866	     88.46147801	      0.00000000	      0.00000000
      8.23333333	     -6.78901120	     19.06687768	     -4.44544010	     -0.24590405	      1.05247089	      0.26724258	     79.09407827	    -12.78450382	     31.43423230	    121.66279505	      2.12341635	     27.39673513	    -10.30578153	      0.00000000	     45.92805887	      6.06900788	    -20.75156319	     43.60910997	      0.76112255	      2.68772369	    -11.45652484	      0.00000000	    -45.11621178	    -16.67397845	    -12.98916992	     89.81626501	     -1.50306958	     79.88713618	      8.37598959	     82.64585220	      0.00000000	      0.00000000	     89.48647404	     -7.91923472	     51.78692114	     21.09365439	     88.47972503	      0.00000000	      0.00000000
      8.24166667	     -6.41956092	     19.56209902	     -4.65960293	     -0.24536791	      1.05280915	      0.26720276	     80.46207718	    -12.50477155	     32.49354063	    122.71627323	      2.14180301	     28.52444328	     -8.84270317	      0.00000000	     44.24809453	      6.88926728	    -21.17583709	     42.12372332	      0.73519767	      1.19859822	    -11.89881280	      0.00000000	    -45.49022961	    -17.09451475	    -13.33595250	     89.81246214	     -1.40278095	     79.91756711	      8.34928298	     82.44658035	      0.00000000	      0.00000000	     89.49272296	     -8.00396813	     51.95993903	     21.07698044	     88.45082970	      0.00000000	      0.00000000
      8.25000000	     -5.89450664	     19.65921363	     -4.64957352	     -0.24469665	      1.05347974	      0.26725200	     81.38065589	    -12.28646243	     32.98487012	    123.60960226	      2.15739455	     29.26384385	     -8.28719289	      0.00000000	     42.49626534	      7.47871823	    -21.24390439	     40.91328463	      0.71407152	      0.04349745	    -11.93030354	      0.00000000	    -46.04179889	    -17.04733408	    -13.61490277	     89.81553435	     -1.28968986	     79.85332635	      8.30891811	     82.31823386	      0.00000000	      0.00000000	     89.47733532	     -8.10185708	     51.80276881	     21.21682593	     88.46135445	      0.00000000	      0.00000000
      8.25833333	     -5.75711052	     19.39362509	     -4.62800297	     -0.24468066	      1.05319948	      0.26766394	     82.72905893	    -11.72152446	     32.88713615	    124.34603880	      2.17024779	     29.44908348	     -8.22178545	      0.00000000	     41.45846818	      7.51258269	    -20.83927236	     40.59492370	      0.70851508	     -0.32984866	    -11.79541924	      0.00000000	    -46.13364513	    -16.81435631	    -13.48393413	     89.81724696	     -1.24633740	     79.77649245	      8.29637612	     82.28100750	      0.00000000	      0.00000000	     89.47907950	     -8.12100325	     51.75006795	     21.23370491	     88.52119843	      0.00000000	      0.00000000
      8.26666667	     -5.92588743	     19.28896548	     -4.71117819	     -0.24530589	      1.05312937	      0.26796092	     84.32397043	    -11.00525714	     33.00059951	    124.60663198	      2.17479600	     29.81425603	     -7.40690028	      0.00000000	     40.64292607	      7.62686173	    -20.72360479	     39.84479225	      0.69542281	     -1.60782383	    -11.97174497	      0.00000000	    -45.98845181	    -16.79700142	    -13.30637720	     89.81870192	     -1.20916788	     79.39784953	      8.34264407	     82.07340366	      0.00000000	      0.00000000	     89.48138740	     -8.13358401	     51.51712890	     21.33272217	     88.46710464	      0.00000000	      0.00000000
      8.27500000	     -5.97347629	     19.26523721	     -4.77889708	     -0.24576480	      1.05283714	      0.26820133	     85.82313159	    -10.44162069	     33.13190075	    124.80806147	      2.17831161	     29.97883386	     -6.88419205	      0.00000000	     39.90585891	      7.83136038	    -20.47622057	     39.53464559	      0.69000973	     -1.99844376	    -12.38751345	      0.00000000	    -45.93764743	    -16.82708701	    -13.24055855	     89.81957198	     -1.17260350	     79.05002369	      8.39015951	     81.96290805	      0.00000000	      0.00000000	     89.47088601	     -8.17295940	     51.29064921	     21.42742838	     88.47474158	      0.00000000	      0.00000000
